<svg width="16" height="16" viewBox="0 0 16 16" fill="none" xmlns="http://www.w3.org/2000/svg">
<path d="M5.28003 4.22003C5.13786 4.08755 4.94981 4.01543 4.75551 4.01885C4.56121 4.02228 4.37582 4.10099 4.23841 4.23841C4.101 4.37582 4.02228 4.56121 4.01886 4.75551C4.01543 4.94981 4.08755 5.13785 4.22003 5.28003L6.94003 8.00003L4.22003 10.72C4.14634 10.7887 4.08724 10.8715 4.04625 10.9635C4.00526 11.0555 3.98322 11.1548 3.98144 11.2555C3.97966 11.3562 3.99819 11.4562 4.03591 11.5496C4.07363 11.643 4.12977 11.7278 4.20099 11.7991C4.27221 11.8703 4.35705 11.9264 4.45043 11.9642C4.54382 12.0019 4.64385 12.0204 4.74455 12.0186C4.84526 12.0168 4.94457 11.9948 5.03657 11.9538C5.12857 11.9128 5.21137 11.8537 5.28003 11.78L8.00003 9.06003L10.72 11.78C10.7887 11.8537 10.8715 11.9128 10.9635 11.9538C11.0555 11.9948 11.1548 12.0168 11.2555 12.0186C11.3562 12.0204 11.4562 12.0019 11.5496 11.9642C11.643 11.9264 11.7279 11.8703 11.7991 11.7991C11.8703 11.7278 11.9264 11.643 11.9642 11.5496C12.0019 11.4562 12.0204 11.3562 12.0186 11.2555C12.0168 11.1548 11.9948 11.0555 11.9538 10.9635C11.9128 10.8715 11.8537 10.7887 11.78 10.72L9.06003 8.00003L11.78 5.28003C11.9125 5.13785 11.9846 4.94981 11.9812 4.75551C11.9778 4.56121 11.8991 4.37582 11.7617 4.23841C11.6242 4.10099 11.4389 4.02228 11.2446 4.01885C11.0503 4.01543 10.8622 4.08755 10.72 4.22003L8.00003 6.94003L5.28003 4.22003Z" fill="black"/>
</svg>