<svg width="84" height="24" viewBox="0 0 84 24" fill="none" xmlns="http://www.w3.org/2000/svg">
<path d="M7.23047 13.6719H3.63281V11.293H7.23047C7.82422 11.293 8.30078 11.168 8.66016 10.918C9.01953 10.668 9.28125 10.3242 9.44531 9.88672C9.61719 9.44922 9.70312 8.95312 9.70312 8.39844C9.70312 7.86719 9.61719 7.36719 9.44531 6.89844C9.28125 6.42969 9.01953 6.05078 8.66016 5.76172C8.30078 5.47266 7.82422 5.32812 7.23047 5.32812H4.44141V20H1.59375V2.9375H7.23047C8.36328 2.9375 9.32422 3.17188 10.1133 3.64062C10.9102 4.10938 11.5195 4.75391 11.9414 5.57422C12.3633 6.38672 12.5742 7.32031 12.5742 8.375C12.5742 9.47656 12.3633 10.4219 11.9414 11.2109C11.5195 12 10.9102 12.6094 10.1133 13.0391C9.32422 13.4609 8.36328 13.6719 7.23047 13.6719ZM17.6016 9.76953V20H14.8711V7.32031H17.4727L17.6016 9.76953ZM20.6602 7.23828L20.6484 9.93359C20.4922 9.89453 20.3242 9.87109 20.1445 9.86328C19.9727 9.84766 19.8008 9.83984 19.6289 9.83984C19.2539 9.83984 18.9297 9.90625 18.6562 10.0391C18.3828 10.1719 18.1523 10.3633 17.9648 10.6133C17.7773 10.8633 17.6289 11.1641 17.5195 11.5156C17.418 11.8672 17.3555 12.2656 17.332 12.7109L16.7461 12.7344C16.7461 11.9375 16.8086 11.1992 16.9336 10.5195C17.0586 9.83203 17.2461 9.23438 17.4961 8.72656C17.7539 8.21094 18.0742 7.80859 18.457 7.51953C18.8398 7.23047 19.2852 7.08594 19.793 7.08594C19.9336 7.08594 20.0938 7.10156 20.2734 7.13281C20.4531 7.16406 20.582 7.19922 20.6602 7.23828ZM25.4297 7.32031V20H22.6992V7.32031H25.4297ZM22.5586 3.99219C22.5586 3.55469 22.6914 3.19141 22.957 2.90234C23.2227 2.61328 23.5938 2.46875 24.0703 2.46875C24.5469 2.46875 24.918 2.61328 25.1836 2.90234C25.4492 3.19141 25.582 3.55469 25.582 3.99219C25.582 4.42188 25.4492 4.78125 25.1836 5.07031C24.918 5.35938 24.5469 5.50391 24.0703 5.50391C23.5938 5.50391 23.2227 5.35938 22.957 5.07031C22.6914 4.78125 22.5586 4.42188 22.5586 3.99219ZM31.0898 2V20H28.3594V2H31.0898ZM37.6523 7.32031L33.1523 13.4492L30.4219 16.5547L29.7305 14.1406L31.7344 11.293L34.3828 7.32031H37.6523ZM34.9219 20L31.793 14.0703L33.5039 12.0664L38.0625 20H34.9219ZM48.9375 17.6211V20H41.8477V17.6211H48.9375ZM42.5977 2.9375V20H39.75V2.9375H42.5977ZM56.8711 17.4219V11.1055C56.8711 10.668 56.8086 10.3164 56.6836 10.0508C56.5664 9.78516 56.3906 9.59375 56.1562 9.47656C55.9297 9.35156 55.6445 9.28906 55.3008 9.28906C54.9414 9.28906 54.6367 9.36328 54.3867 9.51172C54.1445 9.66016 53.9609 9.86328 53.8359 10.1211C53.7109 10.3711 53.6484 10.6602 53.6484 10.9883H50.918C50.918 10.4805 51.0195 9.99219 51.2227 9.52344C51.4336 9.05469 51.7344 8.63672 52.125 8.26953C52.5156 7.90234 52.9883 7.61328 53.543 7.40234C54.0977 7.19141 54.7148 7.08594 55.3945 7.08594C56.207 7.08594 56.9297 7.22266 57.5625 7.49609C58.1953 7.76172 58.6914 8.19531 59.0508 8.79688C59.418 9.39062 59.6016 10.1719 59.6016 11.1406V17.0586C59.6016 17.6445 59.6367 18.168 59.707 18.6289C59.7852 19.082 59.8906 19.4766 60.0234 19.8125V20H57.2461C57.1211 19.6953 57.0273 19.3047 56.9648 18.8281C56.9023 18.3516 56.8711 17.8828 56.8711 17.4219ZM57.2344 12.2773L57.2461 14.0469H55.9336C55.543 14.0469 55.1914 14.1016 54.8789 14.2109C54.5664 14.3125 54.3008 14.4609 54.082 14.6562C53.8711 14.8438 53.707 15.0742 53.5898 15.3477C53.4805 15.6211 53.4258 15.9219 53.4258 16.25C53.4258 16.6484 53.4805 16.9727 53.5898 17.2227C53.707 17.4727 53.875 17.6602 54.0938 17.7852C54.3203 17.9023 54.5938 17.9609 54.9141 17.9609C55.3516 17.9609 55.7305 17.8672 56.0508 17.6797C56.3789 17.4844 56.6289 17.25 56.8008 16.9766C56.9805 16.7031 57.0508 16.4531 57.0117 16.2266L57.6328 17.3633C57.5703 17.6602 57.4531 17.9727 57.2812 18.3008C57.1172 18.6289 56.9023 18.9414 56.6367 19.2383C56.3711 19.5352 56.0508 19.7773 55.6758 19.9648C55.3008 20.1445 54.8672 20.2344 54.375 20.2344C53.6641 20.2344 53.0312 20.0859 52.4766 19.7891C51.9219 19.4922 51.4844 19.0664 51.1641 18.5117C50.8516 17.9492 50.6953 17.2773 50.6953 16.4961C50.6953 15.8633 50.8008 15.2891 51.0117 14.7734C51.2227 14.2578 51.5352 13.8164 51.9492 13.4492C52.3633 13.0742 52.8828 12.7852 53.5078 12.582C54.1406 12.3789 54.8789 12.2773 55.7227 12.2773H57.2344ZM62.4141 2H65.1328V17.2812L64.9219 20H62.4141V2ZM71.9648 13.168V14.1641C71.9648 15.1797 71.8789 16.0664 71.707 16.8242C71.5352 17.582 71.2773 18.2148 70.9336 18.7227C70.5898 19.2305 70.1602 19.6094 69.6445 19.8594C69.1289 20.1094 68.5273 20.2344 67.8398 20.2344C67.1992 20.2344 66.6445 20.0938 66.1758 19.8125C65.7148 19.5234 65.3242 19.1211 65.0039 18.6055C64.6914 18.082 64.4414 17.4609 64.2539 16.7422C64.0742 16.0234 63.9414 15.2305 63.8555 14.3633V12.9688C63.9336 12.1016 64.0625 11.3086 64.2422 10.5898C64.4297 9.86328 64.6797 9.24219 64.9922 8.72656C65.3047 8.20312 65.6953 7.80078 66.1641 7.51953C66.6328 7.23047 67.1875 7.08594 67.8281 7.08594C68.5234 7.08594 69.1289 7.21094 69.6445 7.46094C70.1602 7.71094 70.5898 8.08984 70.9336 8.59766C71.2773 9.09766 71.5352 9.73047 71.707 10.4961C71.8789 11.2539 71.9648 12.1445 71.9648 13.168ZM69.2344 14.1641V13.168C69.2344 12.5273 69.1992 11.9727 69.1289 11.5039C69.0664 11.0352 68.9531 10.6484 68.7891 10.3438C68.6328 10.0312 68.4141 9.79688 68.1328 9.64062C67.8516 9.48438 67.4961 9.40625 67.0664 9.40625C66.6914 9.40625 66.3672 9.48047 66.0938 9.62891C65.8281 9.77734 65.6016 9.98828 65.4141 10.2617C65.2266 10.5273 65.0781 10.8359 64.9688 11.1875C64.8594 11.5312 64.7852 11.9023 64.7461 12.3008V15.0312C64.8008 15.5547 64.9102 16.0352 65.0742 16.4727C65.2461 16.9102 65.4922 17.2578 65.8125 17.5156C66.1406 17.7734 66.5664 17.9023 67.0898 17.9023C67.5039 17.9023 67.8477 17.832 68.1211 17.6914C68.3945 17.5508 68.6133 17.3281 68.7773 17.0234C68.9492 16.7188 69.0664 16.332 69.1289 15.8633C69.1992 15.3867 69.2344 14.8203 69.2344 14.1641ZM80.1328 16.6602C80.1328 16.3945 80.0547 16.1602 79.8984 15.957C79.75 15.7461 79.5078 15.5391 79.1719 15.3359C78.8359 15.1328 78.3867 14.9141 77.8242 14.6797C77.2383 14.4375 76.7188 14.1953 76.2656 13.9531C75.8125 13.7109 75.4297 13.4453 75.1172 13.1562C74.8047 12.8594 74.5664 12.5195 74.4023 12.1367C74.2383 11.7539 74.1562 11.3086 74.1562 10.8008C74.1562 10.2773 74.2539 9.79297 74.4492 9.34766C74.6445 8.90234 74.9258 8.51172 75.293 8.17578C75.6602 7.83203 76.1016 7.56641 76.6172 7.37891C77.1328 7.18359 77.7148 7.08594 78.3633 7.08594C79.2773 7.08594 80.0586 7.25391 80.707 7.58984C81.3633 7.91797 81.8633 8.37891 82.207 8.97266C82.5586 9.55859 82.7344 10.2344 82.7344 11H80.0039C80.0039 10.6797 79.9453 10.3906 79.8281 10.1328C79.7109 9.86719 79.5312 9.65625 79.2891 9.5C79.0469 9.33594 78.7383 9.25391 78.3633 9.25391C78.0195 9.25391 77.7305 9.32031 77.4961 9.45312C77.2695 9.57812 77.0977 9.75 76.9805 9.96875C76.8711 10.1797 76.8164 10.418 76.8164 10.6836C76.8164 10.8789 76.8516 11.0508 76.9219 11.1992C76.9922 11.3477 77.1094 11.4922 77.2734 11.6328C77.4375 11.7656 77.6562 11.9023 77.9297 12.043C78.2109 12.1836 78.5664 12.3438 78.9961 12.5234C79.8477 12.8516 80.5547 13.1914 81.1172 13.543C81.6797 13.8945 82.1016 14.3047 82.3828 14.7734C82.6641 15.2422 82.8047 15.8242 82.8047 16.5195C82.8047 17.082 82.6992 17.5898 82.4883 18.043C82.2852 18.4961 81.9883 18.8867 81.5977 19.2148C81.2148 19.543 80.75 19.7969 80.2031 19.9766C79.6641 20.1484 79.0625 20.2344 78.3984 20.2344C77.4062 20.2344 76.5664 20.0391 75.8789 19.6484C75.1992 19.25 74.6836 18.7383 74.332 18.1133C73.9805 17.4883 73.8047 16.8281 73.8047 16.1328H76.4414C76.4648 16.6328 76.5703 17.0234 76.7578 17.3047C76.9531 17.5859 77.1992 17.7812 77.4961 17.8906C77.793 17.9922 78.1016 18.043 78.4219 18.043C78.8047 18.043 79.1211 17.9922 79.3711 17.8906C79.6211 17.7812 79.8086 17.6211 79.9336 17.4102C80.0664 17.1992 80.1328 16.9492 80.1328 16.6602Z" fill="black"/>
</svg>
